<svg width="25" height="25" viewBox="0 0 25 25" fill="none" xmlns="http://www.w3.org/2000/svg">
<g clip-path="url(#clip0)">
<path d="M0.833333 23.75H0.416667C0.186564 23.75 0 23.9366 0 24.1667C0 24.3968 0.186564 24.5833 0.416667 24.5833H0.833333C1.06344 24.5833 1.25 24.3968 1.25 24.1667C1.25 23.9366 1.06344 23.75 0.833333 23.75Z" fill="black"/>
<path d="M24.5833 23.75H24.1667C23.9366 23.75 23.75 23.9366 23.75 24.1667C23.75 24.3968 23.9366 24.5833 24.1667 24.5833H24.5833C24.8134 24.5833 25 24.3968 25 24.1667C25 23.9366 24.8134 23.75 24.5833 23.75Z" fill="black"/>
<path d="M22.9167 23.75H20.4167V22.0833H4.58335V23.75H2.08335C1.85325 23.75 1.66669 23.9366 1.66669 24.1667C1.66669 24.3968 1.85325 24.5833 2.08335 24.5833H22.9167C23.1468 24.5833 23.3334 24.3968 23.3334 24.1667C23.3334 23.9366 23.1468 23.75 22.9167 23.75Z" fill="black"/>
<path d="M10 2.91666H13.3333V6.24999H10V2.91666Z" fill="black"/>
<path d="M8.33331 0.416656V0.833323H6.66665V0.416656H5.83331V21.25H6.66665V17.5H8.33331V17.9167H19.1666V0.416656H8.33331ZM9.58331 2.08332H13.75C13.9801 2.08332 14.1666 2.26989 14.1666 2.49999V6.66666C14.1666 6.89676 13.9801 7.08332 13.75 7.08332H9.58331C9.35321 7.08332 9.16665 6.89676 9.16665 6.66666V2.49999C9.16665 2.26989 9.35321 2.08332 9.58331 2.08332ZM6.66665 16.6667V1.66666H8.33331V16.6667H6.66665ZM17.9166 14.5833H9.58331C9.35321 14.5833 9.16665 14.3968 9.16665 14.1667C9.16665 13.9366 9.35321 13.75 9.58331 13.75H17.9166C18.1467 13.75 18.3333 13.9366 18.3333 14.1667C18.3333 14.3968 18.1467 14.5833 17.9166 14.5833ZM17.9166 12.0833H11.25C11.0199 12.0833 10.8333 11.8968 10.8333 11.6667C10.8333 11.4366 11.0199 11.25 11.25 11.25H17.9166C18.1467 11.25 18.3333 11.4366 18.3333 11.6667C18.3333 11.8968 18.1467 12.0833 17.9166 12.0833ZM17.9166 9.58332H9.58331C9.35321 9.58332 9.16665 9.39676 9.16665 9.16666C9.16665 8.93655 9.35321 8.74999 9.58331 8.74999H17.9166C18.1467 8.74999 18.3333 8.93655 18.3333 9.16666C18.3333 9.39676 18.1467 9.58332 17.9166 9.58332ZM17.9166 6.66666H15.4166C15.1865 6.66666 15 6.48009 15 6.24999C15 6.01989 15.1865 5.83332 15.4166 5.83332H17.9166C18.1467 5.83332 18.3333 6.01989 18.3333 6.24999C18.3333 6.48009 18.1467 6.66666 17.9166 6.66666ZM17.9166 4.99999H15.4166C15.1865 4.99999 15 4.81343 15 4.58332C15 4.35322 15.1865 4.16666 15.4166 4.16666H17.9166C18.1467 4.16666 18.3333 4.35322 18.3333 4.58332C18.3333 4.81343 18.1467 4.99999 17.9166 4.99999ZM17.9166 3.33332H15.4166C15.1865 3.33332 15 3.14676 15 2.91666C15 2.68655 15.1865 2.49999 15.4166 2.49999H17.9166C18.1467 2.49999 18.3333 2.68655 18.3333 2.91666C18.3333 3.14676 18.1467 3.33332 17.9166 3.33332Z" fill="black"/>
</g>
<defs>
<clipPath id="clip0">
<rect width="25" height="25" fill="white"/>
</clipPath>
</defs>
</svg>
