<svg width="168" height="88" viewBox="0 0 168 88" fill="none" xmlns="http://www.w3.org/2000/svg">
<path d="M2.16 43V13.84H14.76V18.196H8.604V25.54H13.968V30.04H8.604V43H2.16ZM18.3136 43V13.84H24.7576V38.644H31.4536V43H18.3136ZM42.8895 43.432C40.7055 43.432 38.9775 43.048 37.7055 42.28C36.4335 41.512 35.5215 40.408 34.9695 38.968C34.4175 37.528 34.1415 35.812 34.1415 33.82V22.984C34.1415 20.968 34.4175 19.252 34.9695 17.836C35.5215 16.42 36.4335 15.34 37.7055 14.596C38.9775 13.828 40.7055 13.444 42.8895 13.444C45.0975 13.444 46.8375 13.828 48.1095 14.596C49.4055 15.34 50.3295 16.42 50.8815 17.836C51.4335 19.252 51.7095 20.968 51.7095 22.984V33.82C51.7095 35.812 51.4335 37.528 50.8815 38.968C50.3295 40.408 49.4055 41.512 48.1095 42.28C46.8375 43.048 45.0975 43.432 42.8895 43.432ZM42.8895 38.86C43.5615 38.86 44.0535 38.692 44.3655 38.356C44.6775 38.02 44.8815 37.588 44.9775 37.06C45.0735 36.532 45.1215 35.992 45.1215 35.44V21.4C45.1215 20.824 45.0735 20.284 44.9775 19.78C44.8815 19.252 44.6775 18.82 44.3655 18.484C44.0535 18.148 43.5615 17.98 42.8895 17.98C42.2655 17.98 41.7975 18.148 41.4855 18.484C41.1735 18.82 40.9695 19.252 40.8735 19.78C40.7775 20.284 40.7295 20.824 40.7295 21.4V35.44C40.7295 35.992 40.7655 36.532 40.8375 37.06C40.9335 37.588 41.1255 38.02 41.4135 38.356C41.7255 38.692 42.2175 38.86 42.8895 38.86ZM64.7033 43.432C62.5193 43.432 60.7912 43.048 59.5192 42.28C58.2473 41.512 57.3353 40.408 56.7833 38.968C56.2312 37.528 55.9552 35.812 55.9552 33.82V22.984C55.9552 20.968 56.2312 19.252 56.7833 17.836C57.3353 16.42 58.2473 15.34 59.5192 14.596C60.7912 13.828 62.5193 13.444 64.7033 13.444C66.9113 13.444 68.6513 13.828 69.9233 14.596C71.2193 15.34 72.1433 16.42 72.6952 17.836C73.2472 19.252 73.5232 20.968 73.5232 22.984V33.82C73.5232 35.812 73.2472 37.528 72.6952 38.968C72.1433 40.408 71.2193 41.512 69.9233 42.28C68.6513 43.048 66.9113 43.432 64.7033 43.432ZM64.7033 38.86C65.3753 38.86 65.8673 38.692 66.1793 38.356C66.4913 38.02 66.6953 37.588 66.7913 37.06C66.8873 36.532 66.9352 35.992 66.9352 35.44V21.4C66.9352 20.824 66.8873 20.284 66.7913 19.78C66.6953 19.252 66.4913 18.82 66.1793 18.484C65.8673 18.148 65.3753 17.98 64.7033 17.98C64.0793 17.98 63.6113 18.148 63.2993 18.484C62.9873 18.82 62.7833 19.252 62.6873 19.78C62.5913 20.284 62.5433 20.824 62.5433 21.4V35.44C62.5433 35.992 62.5793 36.532 62.6513 37.06C62.7473 37.588 62.9393 38.02 63.2273 38.356C63.5393 38.692 64.0313 38.86 64.7033 38.86ZM78.165 43V13.84H86.193C88.161 13.84 89.865 14.056 91.305 14.488C92.745 14.92 93.861 15.7 94.653 16.828C95.469 17.932 95.877 19.504 95.877 21.544C95.877 22.744 95.781 23.812 95.589 24.748C95.397 25.684 95.037 26.5 94.509 27.196C94.005 27.868 93.273 28.432 92.313 28.888L96.309 43H89.649L86.445 29.932H84.609V43H78.165ZM84.609 26.224H86.409C87.321 26.224 88.029 26.068 88.533 25.756C89.037 25.42 89.385 24.952 89.577 24.352C89.793 23.728 89.901 22.984 89.901 22.12C89.901 20.872 89.673 19.9 89.217 19.204C88.761 18.508 87.921 18.16 86.697 18.16H84.609V26.224Z" fill="#1A1A1A"/>
<path d="M35.16 78V48.84H42.54C45.084 48.84 47.064 49.164 48.48 49.812C49.896 50.436 50.892 51.432 51.468 52.8C52.044 54.144 52.332 55.896 52.332 58.056V68.64C52.332 70.824 52.044 72.612 51.468 74.004C50.892 75.372 49.896 76.38 48.48 77.028C47.088 77.676 45.132 78 42.612 78H35.16ZM41.604 73.536H42.612C43.596 73.536 44.304 73.392 44.736 73.104C45.168 72.816 45.432 72.384 45.528 71.808C45.648 71.232 45.708 70.512 45.708 69.648V56.94C45.708 56.076 45.636 55.38 45.492 54.852C45.372 54.324 45.096 53.94 44.664 53.7C44.232 53.46 43.536 53.34 42.576 53.34H41.604V73.536ZM57.0097 78V48.84H63.4537V78H57.0097ZM72.4099 78L67.1539 48.84H72.6619L75.7939 68.64L78.7099 48.84H84.5419L79.2139 78H72.4099ZM88.2271 78V48.84H94.6711V78H88.2271ZM98.6232 78V74.112L105.751 53.196H98.9472V48.84H112.087V52.476L104.851 73.644H112.159V78H98.6232ZM115.894 78V48.84H122.338V78H115.894ZM135.758 78.432C133.574 78.432 131.846 78.048 130.574 77.28C129.302 76.512 128.39 75.408 127.838 73.968C127.286 72.528 127.01 70.812 127.01 68.82V57.984C127.01 55.968 127.286 54.252 127.838 52.836C128.39 51.42 129.302 50.34 130.574 49.596C131.846 48.828 133.574 48.444 135.758 48.444C137.966 48.444 139.706 48.828 140.978 49.596C142.274 50.34 143.198 51.42 143.75 52.836C144.302 54.252 144.578 55.968 144.578 57.984V68.82C144.578 70.812 144.302 72.528 143.75 73.968C143.198 75.408 142.274 76.512 140.978 77.28C139.706 78.048 137.966 78.432 135.758 78.432ZM135.758 73.86C136.43 73.86 136.922 73.692 137.234 73.356C137.546 73.02 137.75 72.588 137.846 72.06C137.942 71.532 137.99 70.992 137.99 70.44V56.4C137.99 55.824 137.942 55.284 137.846 54.78C137.75 54.252 137.546 53.82 137.234 53.484C136.922 53.148 136.43 52.98 135.758 52.98C135.134 52.98 134.666 53.148 134.354 53.484C134.042 53.82 133.838 54.252 133.742 54.78C133.646 55.284 133.598 55.824 133.598 56.4V70.44C133.598 70.992 133.634 71.532 133.706 72.06C133.802 72.588 133.994 73.02 134.282 73.356C134.594 73.692 135.086 73.86 135.758 73.86ZM149.22 78V48.84H153.756L159.732 62.88V48.84H165.06V78H160.704L154.728 62.88V78H149.22Z" fill="#1A1A1A"/>
</svg>
