<svg width="30" height="30" viewBox="0 0 30 30" fill="none" xmlns="http://www.w3.org/2000/svg">
<path d="M10.1953 14.0625H3.86719C1.73479 14.0625 0 12.3277 0 10.1953V3.86719C0 1.73479 1.73479 0 3.86719 0H10.1953C12.3277 0 14.0625 1.73479 14.0625 3.86719V10.1953C14.0625 12.3277 12.3277 14.0625 10.1953 14.0625ZM3.86719 1.875C2.76867 1.875 1.875 2.76867 1.875 3.86719V10.1953C1.875 11.2938 2.76867 12.1875 3.86719 12.1875H10.1953C11.2938 12.1875 12.1875 11.2938 12.1875 10.1953V3.86719C12.1875 2.76867 11.2938 1.875 10.1953 1.875H3.86719Z" fill="white"/>
<path d="M26.1328 14.0625H19.8047C17.6723 14.0625 15.9375 12.3277 15.9375 10.1953V3.86719C15.9375 1.73479 17.6723 0 19.8047 0H26.1328C28.2652 0 30 1.73479 30 3.86719V10.1953C30 12.3277 28.2652 14.0625 26.1328 14.0625ZM19.8047 1.875C18.7062 1.875 17.8125 2.76867 17.8125 3.86719V10.1953C17.8125 11.2938 18.7062 12.1875 19.8047 12.1875H26.1328C27.2313 12.1875 28.125 11.2938 28.125 10.1953V3.86719C28.125 2.76867 27.2313 1.875 26.1328 1.875H19.8047Z" fill="white"/>
<path d="M22.9688 30C19.0917 30 15.9375 26.8458 15.9375 22.9688C15.9375 19.0917 19.0917 15.9375 22.9688 15.9375C26.8458 15.9375 30 19.0917 30 22.9688C30 26.8458 26.8458 30 22.9688 30ZM22.9688 17.8125C20.1256 17.8125 17.8125 20.1256 17.8125 22.9688C17.8125 25.8119 20.1256 28.125 22.9688 28.125C25.8119 28.125 28.125 25.8119 28.125 22.9688C28.125 20.1256 25.8119 17.8125 22.9688 17.8125Z" fill="white"/>
<path d="M10.1953 30H3.86719C1.73479 30 0 28.2652 0 26.1328V19.8047C0 17.6723 1.73479 15.9375 3.86719 15.9375H10.1953C12.3277 15.9375 14.0625 17.6723 14.0625 19.8047V26.1328C14.0625 28.2652 12.3277 30 10.1953 30ZM3.86719 17.8125C2.76867 17.8125 1.875 18.7062 1.875 19.8047V26.1328C1.875 27.2313 2.76867 28.125 3.86719 28.125H10.1953C11.2938 28.125 12.1875 27.2313 12.1875 26.1328V19.8047C12.1875 18.7062 11.2938 17.8125 10.1953 17.8125H3.86719Z" fill="white"/>
</svg>
